<svg xmlns="http://www.w3.org/2000/svg" width="24" height="25" viewBox="0 0 24 25" fill="none">
<path d="M11.4742 15.3998L7.84922 11.7748C7.79922 11.7248 7.76172 11.6706 7.73672 11.6123C7.71172 11.554 7.69922 11.4915 7.69922 11.4248C7.69922 11.2915 7.74505 11.1748 7.83672 11.0748C7.92839 10.9748 8.04922 10.9248 8.19922 10.9248L15.7992 10.9248C15.9492 10.9248 16.0701 10.9748 16.1617 11.0748C16.2534 11.1748 16.2992 11.2915 16.2992 11.4248C16.2992 11.4581 16.2492 11.5748 16.1492 11.7748L12.5242 15.3998C12.4409 15.4831 12.3576 15.5415 12.2742 15.5748C12.1909 15.6081 12.0992 15.6248 11.9992 15.6248C11.8992 15.6248 11.8076 15.6081 11.7242 15.5748C11.6409 15.5415 11.5576 15.4831 11.4742 15.3998Z" fill="#011B2B"/>
</svg>