<svg width="56" height="100" viewBox="0 0 56 100" fill="none" xmlns="http://www.w3.org/2000/svg">
<path d="M14.3702 50.034L53.1301 88.7939C54.4484 90.1123 55.0856 91.6504 55.0417 93.4082C54.9977 95.166 54.3166 96.7041 52.9982 98.0225C51.6799 99.3408 50.1418 100 48.3839 100C46.6261 100 45.088 99.3408 43.7697 98.0225L3.16407 57.5487C2.10938 56.494 1.31836 55.3075 0.791018 53.9891C0.263673 52.6708 0 51.3524 0 50.034C0 48.7157 0.263673 47.3973 0.791018 46.0789C1.31836 44.7606 2.10938 43.574 3.16407 42.5194L43.7697 1.91375C45.088 0.59539 46.6481 -0.0418191 48.4499 0.00212639C50.2516 0.0460718 51.8117 0.727226 53.1301 2.04559C54.4484 3.36395 55.1076 4.90204 55.1076 6.65986C55.1076 8.41768 54.4484 9.95577 53.1301 11.2741L14.3702 50.034Z" fill="white"/>
</svg>
