<svg width="104" height="104" viewBox="0 0 104 104" fill="none" xmlns="http://www.w3.org/2000/svg">
<path d="M94.4295 1.64645L51.8535 44.2224L9.27857 1.64645L8.92504 1.29291L8.57149 1.64642L1.49999 8.71692L1.14638 9.07048L1.49996 9.42405L44.0759 52L1.49996 94.5759L1.14638 94.9295L1.49999 95.2831L8.57149 102.354L8.92504 102.707L9.27857 102.354L51.8535 59.7776L94.4295 102.354L94.783 102.707L95.1366 102.354L102.207 95.2831L102.561 94.9295L102.207 94.5759L59.6311 52L102.207 9.42405L102.561 9.0705L102.207 8.71695L95.1366 1.64645L94.783 1.29289L94.4295 1.64645Z" fill="white" stroke="white"/>
</svg>
