<svg width="100" height="100" viewBox="0 0 100 100" fill="none" xmlns="http://www.w3.org/2000/svg">
<path d="M40 50H57.5V56.5C57.5 57.6667 58 58.4583 59 58.875C60 59.2917 60.9167 59.0833 61.75 58.25L71.5 48.5C72.5 47.5 73 46.3333 73 45C73 43.6667 72.5 42.5 71.5 41.5L61.75 31.75C60.9167 30.9167 60 30.7083 59 31.125C58 31.5417 57.5 32.3333 57.5 33.5V40H35C33.5833 40 32.3958 40.4792 31.4375 41.4375C30.4792 42.3958 30 43.5833 30 45V60C30 61.4167 30.4792 62.6042 31.4375 63.5625C32.3958 64.5208 33.5833 65 35 65C36.4167 65 37.6042 64.5208 38.5625 63.5625C39.5208 62.6042 40 61.4167 40 60V50ZM50 100C48.75 100 47.5208 99.75 46.3125 99.25C45.1042 98.75 44 98 43 97L3 57C2 56 1.25 54.8958 0.75 53.6875C0.25 52.4792 0 51.25 0 50C0 48.75 0.25 47.5208 0.75 46.3125C1.25 45.1042 2 44 3 43L43 3C44 2 45.1042 1.25 46.3125 0.75C47.5208 0.25 48.75 0 50 0C51.25 0 52.4792 0.25 53.6875 0.75C54.8958 1.25 56 2 57 3L97 43C98 44 98.75 45.1042 99.25 46.3125C99.75 47.5208 100 48.75 100 50C100 51.25 99.75 52.4792 99.25 53.6875C98.75 54.8958 98 56 97 57L57 97C56 98 54.8958 98.75 53.6875 99.25C52.4792 99.75 51.25 100 50 100Z" fill="#008FDC"/>
</svg>
