<svg width="101" height="100" viewBox="0 0 101 100" fill="none" xmlns="http://www.w3.org/2000/svg">
<path d="M94.5372 0H5.62052C4.15415 0.0109028 2.75093 0.598256 1.71402 1.63517C0.677113 2.67208 0.0897603 4.07529 0.0788574 5.54167V94.4583C0.0897603 95.9247 0.677113 97.3279 1.71402 98.3648C2.75093 99.4017 4.15415 99.9891 5.62052 100H53.4955V61.3333H40.4955V46.2083H53.4955V35.0833C53.4955 22.1667 61.3705 15.125 72.9539 15.125C76.8289 15.125 80.7039 15.125 84.5789 15.7083V29.1667H76.6205C70.3289 29.1667 69.1205 32.1667 69.1205 36.5417V46.1667H84.1205L82.1622 61.2917H69.1205V100H94.5372C96.0036 99.9891 97.4068 99.4017 98.4437 98.3648C99.4806 97.3279 100.068 95.9247 100.079 94.4583V5.54167C100.068 4.07529 99.4806 2.67208 98.4437 1.63517C97.4068 0.598256 96.0036 0.0109028 94.5372 0V0Z" fill="white"/>
</svg>
