<svg width="56" height="100" viewBox="0 0 56 100" fill="none" xmlns="http://www.w3.org/2000/svg">
<path d="M40.7276 50.0319L2.01878 11.323C0.70215 10.0064 0.0657799 8.44836 0.109668 6.64897C0.153555 4.84958 0.833813 3.29157 2.15044 1.97494C3.46707 0.658314 5.02508 0 6.82447 0C8.62386 0 10.1819 0.658314 11.4985 1.97494L51.919 42.5271C52.9723 43.5804 53.7622 44.7653 54.2889 46.082C54.8156 47.3986 55.0789 48.7152 55.0789 50.0319C55.0789 51.3485 54.8156 52.6651 54.2889 53.9817C53.7622 55.2984 52.9723 56.4833 51.919 57.5366L11.3668 98.0888C10.0502 99.4054 8.51414 100.042 6.75864 99.9979C5.00313 99.954 3.46707 99.2737 2.15044 97.9571C0.833813 96.6405 0.175499 95.0825 0.175499 93.2831C0.175499 91.4837 0.833813 89.9257 2.15044 88.609L40.7276 50.0319Z" fill="white"/>
</svg>
