<svg width="147" height="100" viewBox="0 0 147 100" fill="none" xmlns="http://www.w3.org/2000/svg">
<path d="M8.35844 100C6.05019 100 4.11533 99.2014 2.55387 97.6042C0.992402 96.0069 0.21167 94.0278 0.21167 91.6667C0.21167 89.3056 0.992402 87.3264 2.55387 85.7292C4.11533 84.1319 6.05019 83.3333 8.35844 83.3333H138.707C141.015 83.3333 142.95 84.1319 144.511 85.7292C146.073 87.3264 146.853 89.3056 146.853 91.6667C146.853 94.0278 146.073 96.0069 144.511 97.6042C142.95 99.2014 141.015 100 138.707 100H8.35844ZM8.35844 58.3333C6.05019 58.3333 4.11533 57.5347 2.55387 55.9375C0.992402 54.3403 0.21167 52.3611 0.21167 50C0.21167 47.6389 0.992402 45.6597 2.55387 44.0625C4.11533 42.4653 6.05019 41.6667 8.35844 41.6667H138.707C141.015 41.6667 142.95 42.4653 144.511 44.0625C146.073 45.6597 146.853 47.6389 146.853 50C146.853 52.3611 146.073 54.3403 144.511 55.9375C142.95 57.5347 141.015 58.3333 138.707 58.3333H8.35844ZM8.35844 16.6667C6.05019 16.6667 4.11533 15.8681 2.55387 14.2708C0.992402 12.6736 0.21167 10.6944 0.21167 8.33333C0.21167 5.97222 0.992402 3.99306 2.55387 2.39583C4.11533 0.798611 6.05019 0 8.35844 0H138.707C141.015 0 142.95 0.798611 144.511 2.39583C146.073 3.99306 146.853 5.97222 146.853 8.33333C146.853 10.6944 146.073 12.6736 144.511 14.2708C142.95 15.8681 141.015 16.6667 138.707 16.6667H8.35844Z" fill="white"/>
</svg>
