<svg width="102" height="100" viewBox="0 0 102 100" fill="none" xmlns="http://www.w3.org/2000/svg">
<path d="M93.8155 0H8.45985C4.27575 0 0.928467 3.34728 0.928467 7.11297V92.887C0.928467 96.6527 4.27575 100 8.45985 100H93.8155C97.9996 100 101.347 96.6527 101.347 92.887V7.11297C101.347 3.34728 97.9996 0 93.8155 0ZM30.6356 85.3557H15.9912V37.6569H30.6356V85.3557ZM23.5226 30.9623C18.9201 30.9623 14.736 27.1967 14.736 22.1757C14.736 17.1548 18.5017 13.3891 23.5226 13.3891C28.1251 13.3891 32.3092 17.1548 32.3092 22.1757C32.3092 27.1967 28.1251 30.9623 23.5226 30.9623ZM86.7025 84.9372H72.0582V61.5063C72.0582 56.067 72.0582 48.5356 64.1084 48.5356C56.1586 48.5356 55.3218 54.8117 55.3218 60.6695V84.5188H40.6774V37.6569H54.485V43.9331H54.9034C56.9954 40.1674 62.0163 35.9833 69.1293 35.9833C84.1921 35.9833 87.1209 46.0251 87.1209 58.9958V84.9372H86.7025Z" fill="white"/>
</svg>
