<svg width="100" height="100" viewBox="0 0 100 100" fill="none" xmlns="http://www.w3.org/2000/svg">
<path d="M40.9148 59.0852L3.60166 43.9582C2.35308 43.478 1.44066 42.7337 0.864398 41.7252C0.288133 40.7167 0 39.6843 0 38.6278C0 37.5713 0.312144 36.5388 0.936431 35.5303C1.56072 34.5219 2.49715 33.7775 3.74572 33.2973L92.2024 0.450207C93.3549 -0.0300138 94.4595 -0.126058 95.5159 0.162075C96.5724 0.450207 97.4848 0.97845 98.2532 1.7468C99.0216 2.51516 99.5498 3.42758 99.8379 4.48406C100.126 5.54055 100.03 6.64506 99.5498 7.79759L66.7027 96.2543C66.2225 97.5029 65.4781 98.4393 64.4697 99.0636C63.4612 99.6879 62.4287 100 61.3722 100C60.3157 100 59.2833 99.7119 58.2748 99.1356C57.2663 98.5593 56.522 97.6469 56.0418 96.3983L40.9148 59.0852Z" fill="#008FDC"/>
</svg>
