<svg width="125" height="100" viewBox="0 0 125 100" fill="none" xmlns="http://www.w3.org/2000/svg">
<path d="M12.5 100C9.0625 100 6.11979 98.776 3.67187 96.3281C1.22396 93.8802 0 90.9375 0 87.5V12.5C0 9.0625 1.22396 6.11979 3.67187 3.67188C6.11979 1.22396 9.0625 0 12.5 0H112.5C115.937 0 118.88 1.22396 121.328 3.67188C123.776 6.11979 125 9.0625 125 12.5V87.5C125 90.9375 123.776 93.8802 121.328 96.3281C118.88 98.776 115.937 100 112.5 100H12.5ZM62.5 55.1562C63.0208 55.1562 63.5677 55.0781 64.1406 54.9219C64.7135 54.7656 65.2604 54.5312 65.7812 54.2188L110 26.5625C110.833 26.0417 111.458 25.3906 111.875 24.6094C112.292 23.8281 112.5 22.9688 112.5 22.0312C112.5 19.9479 111.615 18.3854 109.844 17.3438C108.073 16.3021 106.25 16.3542 104.375 17.5L62.5 43.75L20.625 17.5C18.75 16.3542 16.9271 16.3281 15.1562 17.4219C13.3854 18.5156 12.5 20.0521 12.5 22.0312C12.5 23.0729 12.7083 23.9844 13.125 24.7656C13.5417 25.5469 14.1667 26.1458 15 26.5625L59.2187 54.2188C59.7396 54.5312 60.2865 54.7656 60.8594 54.9219C61.4323 55.0781 61.9792 55.1562 62.5 55.1562Z" fill="#008FDC"/>
</svg>
