<svg width="100" height="100" viewBox="0 0 100 100" fill="none" xmlns="http://www.w3.org/2000/svg">
<path d="M94.1667 100C82.5926 100 71.1574 97.4769 59.8611 92.4306C48.5648 87.3843 38.287 80.2315 29.0278 70.9722C19.7685 61.713 12.6157 51.4352 7.56944 40.1389C2.52315 28.8426 0 17.4074 0 5.83333C0 4.16667 0.555556 2.77778 1.66667 1.66667C2.77778 0.555556 4.16667 0 5.83333 0H28.3333C29.6296 0 30.787 0.439815 31.8056 1.31944C32.8241 2.19907 33.4259 3.24074 33.6111 4.44444L37.2222 23.8889C37.4074 25.3704 37.3611 26.6204 37.0833 27.6389C36.8056 28.6574 36.2963 29.537 35.5556 30.2778L22.0833 43.8889C23.9352 47.3148 26.1343 50.625 28.6806 53.8194C31.2269 57.0139 34.0278 60.0926 37.0833 63.0556C39.9537 65.9259 42.963 68.588 46.1111 71.0417C49.2593 73.4954 52.5926 75.7407 56.1111 77.7778L69.1667 64.7222C70 63.8889 71.088 63.2639 72.4306 62.8472C73.7732 62.4306 75.0926 62.3148 76.3889 62.5L95.5556 66.3889C96.8519 66.7593 97.9167 67.4306 98.75 68.4028C99.5833 69.375 100 70.463 100 71.6667V94.1667C100 95.8333 99.4444 97.2222 98.3333 98.3333C97.2222 99.4444 95.8333 100 94.1667 100Z" fill="#008FDC"/>
</svg>
