<svg width="15" height="15" viewBox="0 0 100 100" fill="none" xmlns="http://www.w3.org/2000/svg">
<path d="M36.9844 73.9687C26.6477 73.9687 17.8995 70.3888 10.7397 63.229C3.5799 56.0692 0 47.321 0 36.9844C0 26.6477 3.5799 17.8995 10.7397 10.7397C17.8995 3.5799 26.6477 0 36.9844 0C47.321 0 56.0692 3.5799 63.229 10.7397C70.3888 17.8995 73.9687 26.6477 73.9687 36.9844C73.9687 41.1569 73.3049 45.0925 71.9772 48.7909C70.6496 52.4893 68.8478 55.761 66.5718 58.606L98.4353 90.4694C99.4784 91.5126 100 92.8402 100 94.4523C100 96.0645 99.4784 97.3921 98.4353 98.4353C97.3921 99.4784 96.0645 100 94.4523 100C92.8402 100 91.5126 99.4784 90.4694 98.4353L58.606 66.5718C55.761 68.8478 52.4893 70.6496 48.7909 71.9772C45.0925 73.3049 41.1569 73.9687 36.9844 73.9687ZM36.9844 62.5889C44.0967 62.5889 50.1422 60.0996 55.1209 55.1209C60.0996 50.1422 62.5889 44.0967 62.5889 36.9844C62.5889 29.872 60.0996 23.8265 55.1209 18.8478C50.1422 13.8691 44.0967 11.3798 36.9844 11.3798C29.872 11.3798 23.8265 13.8691 18.8478 18.8478C13.8691 23.8265 11.3798 29.872 11.3798 36.9844C11.3798 44.0967 13.8691 50.1422 18.8478 55.1209C23.8265 60.0996 29.872 62.5889 36.9844 62.5889Z" fill="white"/>
</svg>
