<svg width="144" height="100" viewBox="0 0 144 100" fill="none" xmlns="http://www.w3.org/2000/svg">
<path d="M140.198 15.6122C139.385 12.592 137.793 9.83833 135.581 7.62671C133.37 5.41509 130.616 3.82315 127.596 3.01021C116.473 9.12316e-07 71.7793 0 71.7793 0C71.7793 0 27.0855 9.12316e-07 15.963 3.01021C12.9428 3.82315 10.1891 5.41509 7.97747 7.62671C5.76585 9.83833 4.17391 12.592 3.36097 15.6122C1.28416 26.9554 0.27634 38.4685 0.350763 50C0.27634 61.5315 1.28416 73.0446 3.36097 84.3878C4.17391 87.408 5.76585 90.1617 7.97747 92.3733C10.1891 94.5849 12.9428 96.1769 15.963 96.9898C27.0855 100 71.7793 100 71.7793 100C71.7793 100 116.473 100 127.596 96.9898C130.616 96.1769 133.37 94.5849 135.581 92.3733C137.793 90.1617 139.385 87.408 140.198 84.3878C142.275 73.0446 143.282 61.5315 143.208 50C143.282 38.4685 142.275 26.9554 140.198 15.6122V15.6122ZM57.4936 71.4286V28.5714L94.5855 50L57.4936 71.4286Z" fill="white"/>
</svg>
